<svg width="19" height="30" viewBox="0 0 19 30" fill="none" xmlns="http://www.w3.org/2000/svg">
<path d="M4.14979 29.9999C4.04979 29.9699 3.93979 29.9399 3.83979 29.9199C3.18979 29.7499 2.30979 28.8899 2.38979 27.9699C2.42979 27.5299 2.57979 27.1499 2.89979 26.8299C4.74979 24.9799 6.59979 23.1299 8.43979 21.2799C8.47979 21.2399 8.50979 21.1999 8.56979 21.1399C8.41979 21.1199 8.29979 21.0999 8.17979 21.0799C6.93979 20.9299 5.72979 20.6699 4.55979 20.2099C3.80979 19.9199 3.12979 19.4999 2.48979 19.0299C2.12979 18.7599 1.77979 18.4699 1.44979 18.1499C1.14979 17.8599 0.969791 17.4899 0.989791 17.0699C1.03979 16.2299 1.52979 15.3399 2.44979 15.1499C2.95979 15.0499 3.43979 15.1499 3.86979 15.4099C4.21979 15.6199 4.54979 15.8699 4.88979 16.0899C5.56979 16.5299 6.31979 16.8199 7.09979 17.0299C8.02979 17.2799 8.97979 17.4299 9.94979 17.4499C10.4098 17.4599 10.8698 17.3999 11.3198 17.3399C12.2598 17.2199 13.1798 16.9899 14.0598 16.6199C14.6798 16.3599 15.2398 15.9899 15.7798 15.5999C16.1698 15.3199 16.5998 15.1299 17.0898 15.1099C17.7798 15.0799 18.2898 15.3899 18.6398 15.9499C18.8298 16.2499 18.9498 16.5799 18.9898 16.9399C19.0398 17.4199 18.8398 17.8199 18.5298 18.1599C18.1298 18.5999 17.6298 18.9199 17.1498 19.2599C15.8898 20.1499 14.4598 20.6099 12.9598 20.8799C12.4798 20.9699 11.9898 21.0299 11.4798 21.1099C11.5198 21.1499 11.5398 21.1999 11.5798 21.2299C13.3698 23.0199 15.1598 24.8099 16.9498 26.5999C17.2098 26.8599 17.4598 27.1199 17.5598 27.4799C17.7598 28.1699 17.6098 28.7699 17.1098 29.2899C16.7998 29.6199 16.4398 29.8699 15.9798 29.9399C15.9498 29.9399 15.9298 29.9599 15.8998 29.9799C15.7798 29.9799 15.6698 29.9799 15.5498 29.9799C15.4998 29.9699 15.4598 29.9499 15.4098 29.9399C15.0898 29.8799 14.7998 29.7399 14.5598 29.5099C14.4298 29.3899 14.3098 29.2599 14.1798 29.1399C12.8298 27.7899 11.4698 26.4299 10.1198 25.0799C10.0498 25.0099 9.99979 24.9899 9.91979 25.0699C8.54979 26.4399 7.17979 27.8099 5.80979 29.1899C5.44979 29.5599 5.06979 29.8899 4.52979 29.9499C4.51979 29.9499 4.50979 29.9699 4.48979 29.9699C4.38979 29.9999 4.26979 29.9999 4.14979 29.9999Z" fill="white"/>
<path d="M10.0005 15.16C5.81046 15.15 2.37046 11.75 2.43046 7.45C2.50046 3.34 5.82046 0 10.0205 0C14.2905 0 17.6705 3.5 17.5905 7.74C17.5105 11.8 14.2005 15.16 10.0005 15.16ZM13.7505 7.58C13.7505 5.51 12.0705 3.83 10.0005 3.83C7.95046 3.83 6.26046 5.51 6.25046 7.54C6.24046 9.64 7.92046 11.29 9.91046 11.33C12.0705 11.38 13.7705 9.62 13.7505 7.58Z" fill="white"/>
</svg>
